HIERARCHY
ROOT Hips
{
  OFFSET -46.9311 81.1086 7.42172
  CHANNELS 6 Xposition Yposition Zposition Zrotation Xrotation Yrotation
  JOINT Spine
  {
    OFFSET -0.000355721 21.3001 -0.016921
    CHANNELS 3 Zrotation Xrotation Yrotation
    JOINT LeftArm
    {
      OFFSET 13.5181 21.3012 0
      CHANNELS 3 Zrotation Xrotation Yrotation
      JOINT LeftForeArm
      {
        OFFSET 24.5783 0 0
        CHANNELS 3 Zrotation Xrotation Yrotation
        JOINT LeftHand
        {
          OFFSET 24.5783 0 0
          CHANNELS 3 Zrotation Xrotation Yrotation
          End Site
          {
            OFFSET 7.32568 1.52588e-05 0.0169305
          }
        }
      }
    }
    JOINT Head
    {
      OFFSET 0 27.4458 -0.00489235
      CHANNELS 3 Zrotation Xrotation Yrotation
      End Site
      {
        OFFSET 0 0 0
      }
    }
    JOINT RightArm
    {
      OFFSET -13.5174 21.3012 0
      CHANNELS 3 Zrotation Xrotation Yrotation
      JOINT RightForeArm
      {
        OFFSET -24.5783 0 0
        CHANNELS 3 Zrotation Xrotation Yrotation
        JOINT RightHand
        {
          OFFSET -24.5783 0 0
          CHANNELS 3 Zrotation Xrotation Yrotation
          End Site
          {
            OFFSET -7.32568 1.52588e-05 0.0169305
          }
        }
      }
    }
  }
  JOINT RightUpLeg
  {
    OFFSET -8.44614 -9.41038 0.835684
    CHANNELS 3 Zrotation Xrotation Yrotation
    JOINT RightLeg
    {
      OFFSET 0 -40.9639 0
      CHANNELS 3 Zrotation Xrotation Yrotation
      JOINT RightFoot
      {
        OFFSET 0 -40.9639 0
        CHANNELS 3 Zrotation Xrotation Yrotation
        End Site
        {
          OFFSET 0.50614 -9.67405 14.6709
        }
      }
    }
  }
  JOINT LeftUpLeg
  {
    OFFSET 8.44614 -9.41038 0.835684
    CHANNELS 3 Zrotation Xrotation Yrotation
    JOINT LeftLeg
    {
      OFFSET 0 -40.9639 0
      CHANNELS 3 Zrotation Xrotation Yrotation
      JOINT LeftFoot
      {
        OFFSET 0 -40.9639 0
        CHANNELS 3 Zrotation Xrotation Yrotation
        End Site
        {
          OFFSET -0.50614 -9.67405 14.6709
        }
      }
    }
  }
}
MOTION
Frames:	14
Frame Time:	0.0333333
-62.208 84.7463 21.3312 -9.89826 6.90468 31.9602 2.32592 19.9428 3.23837 -62.9393 16.5801 11.1128 -23.6646 -5.27242 -77.4263 -9.97997 -6.78521 -19.2135 -7.55089 -43.5564 -33.4945 87.9194 3.59359 -14.7494 35.065 -2.83592 85.1679 27.0627 -6.39628 -7.93881 -6.32032 -51.8479 -9.80476 57.996 81.5457 -65.1419 6.15892 -43.3754 1.4636 74.738 -37.2323 67.5279 -29.1356 60.7096 31.9251 -3.84776 18.3526 0.537737 
-62.1783 84.6662 21.3783 -9.81902 6.77815 31.9975 2.39016 20.0006 3.27221 -62.9223 16.625 11.2022 -23.5422 -5.21373 -77.4855 -9.68893 -6.77703 -19.2627 -7.73557 -43.9571 -33.6485 87.8732 3.60848 -14.8939 35.3036 -2.71603 85.3696 26.4712 -6.31535 -8.13676 -6.09064 -51.748 -9.52196 58.8203 81.6963 -66.093 6.32457 -43.5352 1.53961 74.8196 -37.3126 67.5343 -28.7733 60.931 31.8883 -4.02413 18.8452 0.587565 
-62.1657 84.6075 21.4491 -9.74234 6.71408 32.0564 2.43381 20.0329 3.29994 -62.8969 16.6628 11.2633 -23.4265 -5.15883 -77.5409 -9.41768 -6.77121 -19.3049 -8.1471 -44.3292 -33.9366 87.8607 3.6111 -14.9984 35.3923 -2.59458 85.549 25.8379 -6.22498 -8.36367 -5.98789 -51.6564 -9.37537 59.4801 81.802 -66.8285 6.42465 -43.6871 1.58733 74.8133 -37.3411 67.5067 -28.6976 61.0935 32.0357 -4.10192 18.875 0.598483 
-62.1696 84.5571 21.5445 -9.68141 6.71867 32.1385 2.46432 20.028 3.27965 -62.8657 16.7083 11.2934 -23.3188 -5.1083 -77.5919 -9.16997 -6.76852 -19.3394 -8.68544 -44.7282 -34.2572 87.872 3.58496 -15.0447 35.564 -2.54983 85.6339 25.2926 -6.1383 -8.58968 -6.10085 -51.5851 -9.46751 60.2097 81.8519 -67.5163 6.40625 -43.8472 1.58652 74.8319 -37.2271 67.5593 -28.8819 61.0636 32.2379 -4.03646 19.0183 0.584369 
-62.184 84.5129 21.6452 -9.64671 6.75495 32.2339 2.50571 20.0254 3.22419 -62.842 16.7672 11.3197 -23.2209 -5.06281 -77.6376 -8.9488 -6.76719 -19.3655 -9.27811 -45.3112 -34.6153 87.8997 3.52406 -15.0519 35.7557 -2.57503 85.626 24.8934 -6.08096 -8.65766 -6.40678 -51.5347 -9.79367 61.1928 81.8359 -68.3364 6.25003 -44.0083 1.53298 74.9134 -37.0555 67.6784 -28.9802 60.8813 32.3919 -3.95811 19.6154 0.584136 
-62.2032 84.5012 21.7292 -9.6461 6.77092 32.3046 2.57132 20.0748 3.1873 -62.8172 16.825 11.3685 -23.1337 -5.02311 -77.6772 -8.75769 -6.76708 -19.3826 -9.98092 -46.0786 -35.1179 87.9402 3.48399 -15.0358 35.7608 -2.60712 85.5829 24.5887 -6.06095 -8.49702 -6.71474 -51.434 -10.1634 61.7131 81.7384 -68.6613 6.04297 -44.1158 1.45729 74.9486 -36.9753 67.7114 -28.9329 60.7554 32.3915 -3.96191 19.9664 0.594065 
-62.2004 84.5339 21.7923 -9.69058 6.75827 32.3228 2.68612 20.1355 3.17452 -62.7947 16.8926 11.4531 -23.0581 -4.98976 -77.7099 -8.59989 -6.76808 -19.3897 -10.6856 -46.8005 -35.6054 87.9592 3.4912 -15.0564 35.4694 -2.58786 85.5684 24.3479 -6.08452 -8.05924 -6.80777 -51.323 -10.3348 61.514 81.6134 -68.3636 5.91369 -44.1409 1.40493 74.8907 -37.0354 67.6888 -29.1178 60.8948 32.2588 -3.91526 19.2476 0.571065 
-62.1815 84.584 21.8489 -9.76295 6.75017 32.3075 2.81977 20.1612 3.16168 -62.7947 16.9643 11.5516 -22.9968 -4.96324 -77.7354 -8.47892 -6.77005 -19.3865 -11.1663 -47.3072 -35.8428 87.9583 3.50945 -15.1121 34.8868 -2.5339 85.5634 24.2084 -6.15998 -7.31682 -6.70236 -51.2401 -10.2902 60.8646 81.5066 -67.7181 5.88681 -44.1237 1.38955 74.8093 -37.1877 67.6977 -29.4193 61.1542 31.9853 -3.80708 18.1047 0.536449 
-62.1936 84.6259 21.9107 -9.80305 6.76874 32.2909 2.88311 20.1883 3.15616 -62.8232 17.0095 11.6285 -22.9514 -4.94454 -77.7523 -8.39841 -6.77433 -19.3723 -11.4333 -47.64 -35.931 87.9848 3.50337 -15.116 34.134 -2.50681 85.5016 24.1452 -6.26508 -6.4226 -6.53477 -51.2265 -10.1558 60.4085 81.4513 -67.3319 5.88287 -44.1117 1.38738 74.756 -37.2999 67.6728 -29.2995 61.1878 31.6271 -3.84463 17.8576 0.550474 
-62.2338 84.6537 21.975 -9.77492 6.78715 32.2761 2.87585 20.2392 3.17181 -62.8737 17.0256 11.6963 -22.9239 -4.93401 -77.7607 -8.36209 -6.7836 -19.3461 -11.7271 -47.8981 -36.0995 88.0312 3.46866 -15.0724 33.4709 -2.52013 85.3891 24.0506 -6.36104 -5.59498 -6.45048 -51.1805 -10.0772 60.1237 81.4199 -67.0849 5.84527 -44.1292 1.37486 74.6865 -37.2865 67.5579 -28.9148 61.007 31.5017 -4.00094 18.3525 0.589305 
-62.2686 84.6692 22.0336 -9.71055 6.76826 32.2613 2.87438 20.3029 3.19506 -62.9168 17.0311 11.7708 -22.9136 -4.93209 -77.7593 -8.37479 -6.79556 -19.3065 -12.1809 -48.0459 -36.381 88.0648 3.41676 -15.048 33.0021 -2.53191 85.2993 23.8935 -6.43779 -4.8909 -6.44246 -51.0718 -10.0735 59.9913 81.3959 -66.9307 5.77489 -44.1723 1.34859 74.5844 -37.1805 67.4309 -28.7569 60.861 31.7426 -4.05788 18.6544 0.594099 
-62.2939 84.6679 22.0886 -9.6614 6.71593 32.2712 2.91088 20.3674 3.19922 -62.9403 17.0413 11.8288 -22.9229 -4.93984 -77.7468 -8.43926 -6.81042 -19.2537 -12.6231 -48.042 -36.6332 88.0819 3.36684 -15.0429 32.6102 -2.51335 85.2642 23.7234 -6.49789 -4.31989 -6.45467 -50.9488 -10.1153 60.0982 81.3762 -66.9909 5.69315 -44.2373 1.31779 74.5199 -37.0693 67.3606 -28.7878 60.8288 31.9849 -4.03625 18.6551 0.578301 
-62.3152 84.6456 22.1469 -9.63615 6.67299 32.3295 2.94811 20.4101 3.19823 -62.9585 17.0399 11.8595 -22.9544 -4.95915 -77.7205 -8.55894 -6.82822 -19.1886 -12.8165 -47.99 -36.7678 88.0864 3.34606 -15.0446 32.2874 -2.48961 85.2468 23.4986 -6.53443 -3.91162 -6.51489 -50.8641 -10.2171 60.5535 81.3675 -67.3936 5.61226 -44.3306 1.289 74.5188 -37.0148 67.3444 -28.7597 60.8434 31.9249 -4.06372 18.6838 0.580985 
-62.3261 84.6145 22.2046 -9.61646 6.6536 32.426 2.9541 20.4371 3.23647 -62.9819 17.0031 11.8798 -23.0071 -4.98872 -77.6842 -8.73623 -6.84941 -19.1077 -12.7721 -47.9707 -36.8662 88.0721 3.34337 -15.0847 32.0998 -2.48389 85.2231 23.1584 -6.5567 -3.5657 -6.67288 -50.789 -10.4065 61.1377 81.3541 -67.8938 5.52774 -44.4398 1.25911 74.5353 -37.0185 67.3542 -28.6643 60.8531 31.7836 -4.11213 18.7992 0.585911 
